<svg class="logo" data-name="Layer 1" viewBox="0 0 872.45 155.63" data-reactid="50"><defs data-reactid="51"><linearGradient id="logo-linear-gradient" x1="64.51" y1="149.24" x2="149.69" y2="60.92" gradientUnits="userSpaceOnUse" data-reactid="52"><stop offset="0.39" stop-color="#0069ff" data-reactid="53"></stop><stop offset="0.59" stop-color="#2e84ff" data-reactid="54"></stop><stop offset="1" stop-color="#fff" data-reactid="55"></stop></linearGradient></defs><path d="M233.59,47.85c13.61,0,22.35,7.67,24.58,19.3h-9.49c-2-7.18-7-11.05-15.09-11.05-11.06,0-18.23,8.66-18.23,21.11,0,12.21,7.26,21.12,18,21.12,8.74,0,13.36-3.88,15.34-11h9.49c-2.23,11.63-11.22,19.3-24.91,19.3-16.66,0-27.55-12.29-27.55-29.37C205.71,60.39,216.84,47.85,233.59,47.85Z" fill="#231f20" data-reactid="56"></path><path d="M286.63,64.35c12.54,0,20.54,8,20.54,21.11s-8.58,21.12-20.54,21.12c-12.46,0-20.54-8-20.54-21.12S274.75,64.35,286.63,64.35Zm0,35.05c6.76,0,11.3-5.52,11.3-13.94,0-8.74-4.54-13.94-11.3-13.94s-11.3,5.53-11.3,13.94S279.87,99.4,286.63,99.4Z" fill="#231f20" data-reactid="57"></path><path d="M316.49,65.34h8.58v5.85h.33c2.31-4.54,6.6-6.84,12.46-6.84,8,0,15.09,4.28,15.09,16.82v24.42H344V82.33c0-8-3.38-10.73-8.58-10.73-5.69,0-10.06,4.87-10.06,13v21h-8.91Z" fill="#231f20" data-reactid="58"></path><path d="M357.66,65.34h9.73l10.48,31h.33l10.47-31h9l-14.6,40.25H372.67Z" fill="#231f20" data-reactid="59"></path><path d="M420.35,64.35c11.3,0,18.81,7.17,18.81,19.63v3H409.54c.5,7.83,4.71,12.62,11.14,12.62,5.69,0,8.5-3,9.32-6.19h8.74c-1.15,7.18-8,13.2-18.14,13.2-12.87,0-20.21-7.84-20.21-21C400.39,72.76,408.8,64.35,420.35,64.35ZM410,80.93h20.12c-.74-6.69-4.12-9.66-9.73-9.66C415.15,71.27,411.19,74.82,410,80.93Z" fill="#231f20" data-reactid="60"></path><path d="M448.15,65.34h8.58v5.85H457a11,11,0,0,1,10.64-6.84A9.37,9.37,0,0,1,473.23,66l-2.31,7.91A11,11,0,0,0,466,72.59c-6,0-8.91,5.86-8.91,12.87v20.13h-8.91Z" fill="#231f20" data-reactid="61"></path><path d="M484,72.26h-7.59V65.34H484V53.13h8.91V65.34h10.31v6.92H492.94v20c0,4.29,1.49,5.94,5.61,5.94h4.7v7.42h-6.18c-9.24,0-13-3.88-13-12.87Z" fill="#231f20" data-reactid="62"></path><path d="M528.33,64.35c11.3,0,18.81,7.17,18.81,19.63v3H517.52c.5,7.83,4.71,12.62,11.14,12.62,5.69,0,8.49-3,9.32-6.19h8.74c-1.15,7.18-8,13.2-18.14,13.2-12.87,0-20.21-7.84-20.21-21C508.37,72.76,516.78,64.35,528.33,64.35ZM517.94,80.93h20.12c-.74-6.69-4.12-9.66-9.73-9.66C523.13,71.27,519.17,74.82,517.94,80.93Z" fill="#231f20" data-reactid="63"></path><path d="M556.13,45.21H565v60.38h-8.91Z" fill="#231f20" data-reactid="64"></path><path d="M577.16,45.21h8.91v60.38h-8.91Z" fill="#231f20" data-reactid="65"></path><path d="M597.87,45.21h9.57v9.07h-9.57Zm.33,20.13h8.91v40.25H598.2Z" fill="#231f20" data-reactid="66"></path><path d="M625.91,110.54c.09,4.45,4.29,7.18,10.15,7.18,7.18,0,12-3.63,12-14.19v-4h-.33c-2.47,4.87-7.42,7-13.36,7-10.15,0-18-7.42-18-20.79s8.33-21.44,18.64-21.44c5.77,0,10.23,2.14,12.7,7h.33v-6h8.5v38.19c0,15.18-8.74,20.87-20.54,20.87-10.72,0-18.4-4.62-18.56-13.86ZM636.64,99.4c6.35,0,11.05-5.11,11.05-13.94V84.8c-.25-8.41-4.87-13.28-11.05-13.28s-11,5.45-11,14.27S630.37,99.4,636.64,99.4Z" fill="#231f20" data-reactid="67"></path><path d="M685.8,64.35c11.3,0,18.81,7.17,18.81,19.63v3H675c.49,7.83,4.7,12.62,11.13,12.62,5.69,0,8.5-3,9.32-6.19h8.75c-1.16,7.18-8,13.2-18.15,13.2-12.87,0-20.21-7.84-20.21-21C665.84,72.76,674.25,64.35,685.8,64.35ZM675.41,80.93h20.13c-.75-6.69-4.13-9.66-9.74-9.66C680.61,71.27,676.65,74.82,675.41,80.93Z" fill="#231f20" data-reactid="68"></path><path d="M713.6,65.34h8.58v5.85h.33c2.31-4.54,6.6-6.84,12.46-6.84,8,0,15.09,4.28,15.09,16.82v24.42h-8.91V82.33c0-8-3.38-10.73-8.58-10.73-5.69,0-10.06,4.87-10.06,13v21H713.6Z" fill="#231f20" data-reactid="69"></path><path d="M778.69,64.35c11.13,0,17.32,6.43,18.31,14.76h-8.83c-.74-4.12-3.63-7.59-9.48-7.59-6.27,0-10.81,5.61-10.81,13.94s4.54,13.94,10.81,13.94c5.93,0,8.74-3.46,9.48-7.59H797c-1,8.34-7.1,14.77-18.31,14.77-12.38,0-20.05-7.92-20.05-21.12C758.64,72.43,767.06,64.35,778.69,64.35Z" fill="#231f20" data-reactid="70"></path><path d="M823.56,64.35c11.3,0,18.81,7.17,18.81,19.63v3H812.75c.5,7.83,4.71,12.62,11.14,12.62,5.69,0,8.5-3,9.32-6.19H842c-1.16,7.18-8,13.2-18.15,13.2-12.87,0-20.21-7.84-20.21-21C803.6,72.76,812,64.35,823.56,64.35ZM813.17,80.93h20.12c-.74-6.69-4.12-9.66-9.73-9.66C818.36,71.27,814.4,74.82,813.17,80.93Z" fill="#231f20" data-reactid="71"></path><path d="M63.24,119.61l.24-.23h0L118.83,64h0L120,62.81A20.76,20.76,0,0,1,149.4,92.18l-1.2,1.2h0L92.84,148.73h0l-.23.25a20.76,20.76,0,0,1-29.36-29.37Z" fill="url(#logo-linear-gradient)" data-reactid="72"></path><path d="M92.5,119.71l-.09-.1-.25-.23h0L50.3,77.51l42-42h0l.24-.24A20.76,20.76,0,0,0,63.14,5.94l-.23.25h0L7.55,61.54c-.35.32-.72.71-1.09,1.08-.07.07-.15.12-.21.19a20.77,20.77,0,0,0,0,29.37l1.2,1.2,55.36,55.35h0l.24.25.09.08A20.76,20.76,0,1,0,92.5,119.71Z" fill="#0069ff" data-reactid="73"></path></svg>
