<?xml version="1.0" encoding="utf-8"?>
<!-- Generator: Adobe Illustrator 18.1.1, SVG Export Plug-In . SVG Version: 6.00 Build 0)  -->
<svg version="1.0" id="Layer_1" xmlns="http://www.w3.org/2000/svg" xmlns:xlink="http://www.w3.org/1999/xlink" x="0px" y="0px"
	 viewBox="0 0 220 47.5" enable-background="new 0 0 220 47.5" xml:space="preserve">
<g>
	<path fill-rule="evenodd" clip-rule="evenodd" fill="#212120" d="M152.6,30.5c0.6-0.7,1-1.5,1.3-2.5c0.3-1,0.4-2.3,0.4-4
		c0-1.6-0.1-2.9-0.4-3.9c-0.3-1.1-0.7-1.9-1.2-2.5c-0.5-0.7-1.1-1.1-1.8-1.4c-0.7-0.3-1.5-0.4-2.3-0.4c-0.8,0-1.6,0.1-2.2,0.3
		c-0.6,0.2-1.3,0.7-1.9,1.3c-0.5,0.6-0.9,1.5-1.3,2.5c-0.3,1.1-0.5,2.4-0.5,4.1c0,1.5,0.1,2.7,0.4,3.8c0.3,1.1,0.7,1.9,1.2,2.6
		c0.5,0.6,1.1,1.1,1.8,1.4c0.7,0.3,1.5,0.4,2.4,0.4c0.8,0,1.5-0.1,2.2-0.4C151.5,31.6,152.1,31.2,152.6,30.5z M163.1,24
		c0,4.4-1.3,7.9-3.9,10.4c-2.6,2.5-6.2,3.8-10.8,3.8c-4.7,0-8.3-1.3-10.8-3.8c-2.6-2.5-3.9-6-3.9-10.4c0-4.4,1.3-7.9,3.9-10.5
		c2.6-2.5,6.2-3.8,10.8-3.8c4.7,0,8.3,1.3,10.9,3.8C161.9,16.2,163.1,19.6,163.1,24z"/>
	<path fill-rule="evenodd" clip-rule="evenodd" fill="#212120" d="M93.4,29V16.8c-0.5-0.2-1.1-0.4-1.8-0.5c-0.7-0.1-1.4-0.2-1.9-0.2
		c-2.3,0-4,0.6-5.1,1.9c-1.1,1.3-1.7,3.1-1.7,5.4c0,2.6,0.5,4.4,1.4,5.4c1,1,2.4,1.5,4.3,1.5c0.9,0,1.7-0.1,2.5-0.4
		C92,29.8,92.7,29.4,93.4,29z M102,34.3c0,2.5-0.4,4.6-1.1,6.3c-0.7,1.7-1.7,3.1-3,4c-1.3,1-2.8,1.7-4.7,2.1
		c-1.8,0.4-3.9,0.7-6.2,0.7H76.9v-6.2h9c1.6,0,2.9-0.1,3.9-0.4c1-0.3,1.8-0.7,2.3-1.3c0.5-0.5,0.9-1.2,1.1-2
		c0.2-0.8,0.3-1.7,0.3-2.9v-0.5c-1,0.8-2.2,1.5-3.4,2c-1.3,0.5-2.7,0.7-4.2,0.7c-3.8,0-6.7-1.1-8.7-3.4C75,31.4,74,28,74,23.3
		c0-2.2,0.3-4.1,0.9-5.7c0.6-1.6,1.5-3,2.6-4.2c1.1-1.1,2.3-2,3.9-2.6c1.5-0.6,3.1-0.9,4.7-0.9c1.5,0,2.8,0.2,4,0.5
		c1.2,0.3,2.3,0.8,3.2,1.4l0.3-1.2h8.4V34.3z"/>
	<polygon fill-rule="evenodd" clip-rule="evenodd" fill="#212120" points="25.6,37.4 0,37.4 0,1.9 9.2,1.9 9.2,30.5 25.6,30.5 	"/>
	<path fill-rule="evenodd" clip-rule="evenodd" fill="#212120" d="M37.6,37.4H29V10.6h8.6V37.4z M37.8,6.8h-9.1V0.2h9.1V6.8z"/>
	<path fill-rule="evenodd" clip-rule="evenodd" fill="#212120" d="M70.3,37.4h-8.6V24.1c0-1.1-0.1-2.2-0.2-3.2
		c-0.1-1.1-0.3-1.9-0.6-2.4c-0.3-0.6-0.8-1-1.4-1.3C59,17,58.1,16.8,57,16.8c-0.8,0-1.6,0.1-2.4,0.4c-0.8,0.3-1.7,0.7-2.6,1.2v19
		h-8.6V10.6H52v3c1.5-1.2,3-2.1,4.4-2.7c1.4-0.6,3-1,4.7-1c2.9,0,5.2,0.8,6.8,2.5c1.6,1.7,2.4,4.2,2.4,7.6V37.4z"/>
	<path fill-rule="evenodd" clip-rule="evenodd" fill="#212120" d="M131.3,28.9c0,2.8-1.2,5-3.7,6.7c-2.5,1.7-5.9,2.5-10.2,2.5
		c-2.4,0-4.6-0.2-6.5-0.7c-1.9-0.4-3.5-0.9-4.7-1.5V29h0.8c0.4,0.3,0.9,0.6,1.5,1c0.6,0.4,1.4,0.7,2.4,1.2c0.9,0.4,1.9,0.7,3,0.9
		c1.1,0.3,2.3,0.4,3.6,0.4c1.7,0,2.9-0.2,3.7-0.6c0.8-0.4,1.2-0.9,1.2-1.7c0-0.7-0.2-1.1-0.7-1.4c-0.5-0.3-1.4-0.6-2.7-0.8
		c-0.6-0.1-1.5-0.3-2.6-0.5c-1.1-0.2-2.1-0.4-3-0.6c-2.4-0.6-4.2-1.6-5.4-3c-1.2-1.3-1.8-3-1.8-5c0-2.6,1.2-4.7,3.7-6.4
		c2.4-1.7,5.8-2.6,10-2.6c2,0,3.9,0.2,5.8,0.6c1.8,0.4,3.3,0.8,4.3,1.3v6.8h-0.7c-1.3-0.9-2.7-1.6-4.4-2.2c-1.6-0.6-3.3-0.8-5-0.8
		c-1.4,0-2.5,0.2-3.5,0.6c-0.9,0.4-1.4,0.9-1.4,1.6c0,0.6,0.2,1.1,0.6,1.5c0.4,0.3,1.4,0.7,3,1c0.9,0.2,1.8,0.3,2.8,0.5
		c1,0.2,2,0.4,3,0.6c2.3,0.6,3.9,1.5,5,2.8C130.7,25.5,131.3,27,131.3,28.9z"/>
	<path fill-rule="evenodd" clip-rule="evenodd" fill="#212120" d="M185,6.2c0,0-3.1,0-3.8,0c-1.7,0-2.8,0.3-3.4,0.9
		c-0.6,0.6-0.9,1.6-0.9,3.3v0.2h6.6v5.8h-6.3v21h-8.6v-21h-3.7v-5.8h3.7V9.9c0-3.3,0.9-5.8,2.6-7.4c1.7-1.6,4.4-2.5,7.9-2.5
		c1.3,0,4.9,0,5.9,0V6.2z"/>
	<path fill-rule="evenodd" clip-rule="evenodd" fill="#212120" d="M206.7,38c-1.1,0-4.5,0-6.1,0c-3.4,0-5.8-0.7-7.5-2
		c-1.6-1.4-2.5-3.7-2.5-7V16.4h-3.5v-5.8h3.5V2.9h8.6v7.7h7.4v5.8h-7.4V26c0,0.9,0,1.4,0,2.1c0,0.7,0.1,1.3,0.4,1.9
		c0.2,0.6,0.6,1,1.2,1.3c0.6,0.3,1.4,0.5,2.5,0.5c0.4,0,3.3,0,3.3,0V38z"/>
</g>
<g>
	<path fill="#212120" d="M220,7.4c0,1.4-0.5,2.6-1.5,3.6c-1,1-2.2,1.5-3.6,1.5c-1.4,0-2.6-0.5-3.6-1.5c-1-1-1.5-2.2-1.5-3.6
		c0-1.4,0.5-2.6,1.5-3.6c1-1,2.2-1.5,3.6-1.5c1.4,0,2.6,0.5,3.6,1.5C219.5,4.8,220,6,220,7.4z M218.9,7.4c0-1.1-0.4-2-1.2-2.8
		c-0.8-0.8-1.7-1.2-2.8-1.2c-1.1,0-2,0.4-2.8,1.2c-0.8,0.8-1.2,1.7-1.2,2.8c0,1.1,0.4,2,1.2,2.8c0.8,0.8,1.7,1.2,2.8,1.2
		c1.1,0,2-0.4,2.8-1.2C218.5,9.4,218.9,8.5,218.9,7.4z M217.8,9.8h-1.6l-1.5-1.9h-0.5v1.9h-1.3V4.7h1.9c0.4,0,0.6,0,0.9,0
		c0.2,0,0.4,0.1,0.6,0.2c0.2,0.1,0.4,0.3,0.5,0.5c0.1,0.2,0.2,0.4,0.2,0.7c0,0.4-0.1,0.7-0.3,0.9c-0.2,0.2-0.5,0.4-0.8,0.6
		L217.8,9.8z M215.6,6.2c0-0.1,0-0.2-0.1-0.3c0-0.1-0.1-0.2-0.2-0.2c-0.1-0.1-0.2-0.1-0.3-0.1c-0.1,0-0.3,0-0.4,0h-0.4V7h0.3
		c0.2,0,0.4,0,0.5,0c0.1,0,0.3-0.1,0.4-0.1c0.1-0.1,0.2-0.1,0.2-0.2C215.5,6.5,215.6,6.4,215.6,6.2z"/>
</g>
</svg>
