<svg width="241" height="76" viewBox="0 0 241 76" fill="none" xmlns="http://www.w3.org/2000/svg">
<path d="M41.1194 71.2153C41.6817 70.8872 42.1269 70.114 42.1269 69.4814V61.2575C42.1269 60.6249 41.6817 59.8283 41.1194 59.5237L33.9967 55.4235C33.4344 55.0955 32.5441 55.0955 31.9818 55.4235L24.9059 59.5237C24.3436 59.8518 23.8984 60.6249 23.8984 61.2575V69.4814C23.8984 70.114 24.3436 70.9107 24.9059 71.2153L32.0286 75.3155C32.5909 75.6435 33.4813 75.6435 34.0436 75.3155L41.1194 71.2153Z" fill="#333333"/>
<path d="M17.2444 45.7235L12.3007 42.8651C11.4572 42.3965 10.8715 41.5061 10.8715 40.4752V35.0864C10.8715 34.0554 11.4338 33.1651 12.3007 32.6965L17.2444 29.8381C17.8067 29.51 18.2519 28.7369 18.2519 28.1042V19.8804C18.2519 19.2477 17.8067 18.4511 17.2444 18.1465L10.1217 14.0463C9.5594 13.7183 8.66906 13.7183 8.10674 14.0463L1.00749 18.1465C0.445168 18.4746 0 19.2477 0 19.8804V28.1042C0 28.7369 0.445168 29.51 1.00749 29.8381L5.95119 32.6965C6.79467 33.1651 7.38042 34.0554 7.38042 35.0864V40.4752C7.38042 41.5061 6.8181 42.3965 5.95119 42.8651L1.00749 45.7235C0.445168 46.0515 0 46.8247 0 47.4573V55.6812C0 56.3138 0.445168 57.1105 1.00749 57.415L8.13017 61.5153C8.69249 61.8433 9.58283 61.8433 10.1451 61.5153L17.2444 57.415C17.8067 57.087 18.2519 56.3138 18.2519 55.6812V47.4573C18.2519 46.8247 17.7833 46.0515 17.2444 45.7235Z" fill="#333333"/>
<path d="M9.11423 25.1521C9.11423 24.5195 8.66906 23.7229 8.10674 23.4183L1.00749 19.3181C0.445168 18.9901 0 19.2478 0 19.8804V28.1043C0 28.7369 0.445168 29.5335 1.00749 29.8381L8.13017 33.9383C8.69249 34.2664 9.13766 33.9852 9.13766 33.3526L9.11423 25.1521Z" fill="#808080"/>
<path d="M18.2284 28.1041C18.2284 28.7367 17.7832 29.5333 17.2209 29.8379L10.0982 33.9382C9.5359 34.2662 9.09073 33.985 9.09073 33.3524V25.1285C9.09073 24.4959 9.5359 23.6993 10.0982 23.3947L17.2209 19.2945C17.7832 18.9665 18.2284 19.2476 18.2284 19.8802V28.1041Z" fill="black"/>
<path d="M9.11423 52.7291C9.11423 52.0965 8.66906 51.2999 8.10674 50.9953L1.00749 46.8951C0.445168 46.567 0 46.8482 0 47.4808V55.7047C0 56.3373 0.445168 57.1339 1.00749 57.4385L8.13017 61.5387C8.69249 61.8668 9.13766 61.5856 9.13766 60.953L9.11423 52.7291Z" fill="#808080"/>
<path d="M18.2284 55.6813C18.2284 56.3139 17.7832 57.1105 17.2209 57.4151L10.0982 61.5153C9.5359 61.8433 9.09073 61.5622 9.09073 60.9296V52.7291C9.09073 52.0965 9.5359 51.2999 10.0982 50.9953L17.2209 46.8951C17.7832 46.567 18.2284 46.8482 18.2284 47.4808V55.6813Z" fill="black"/>
<path d="M66.0253 28.1042V19.8804C66.0253 19.2477 65.5801 18.4511 65.0178 18.1465L57.8951 14.0463C57.3328 13.7183 56.4425 13.7183 55.8802 14.0463L48.7575 18.1465C48.1952 18.4746 47.75 19.2477 47.75 19.8804V28.1042C47.75 28.7369 48.1952 29.51 48.7575 29.8381L53.7012 32.6965C54.5447 33.1651 55.1304 34.0554 55.1304 35.0864V40.4752C55.1304 41.5061 54.5681 42.3965 53.7012 42.8651L48.7575 45.7235C48.1952 46.0515 47.75 46.8247 47.75 47.4573V55.6812C47.75 56.3138 48.1952 57.1105 48.7575 57.415L55.8802 61.5153C56.4425 61.8433 57.3328 61.8433 57.8951 61.5153L65.0178 57.415C65.5801 57.087 66.0253 56.3138 66.0253 55.6812V47.4573C66.0253 46.8247 65.5801 46.0281 65.0178 45.7235L60.0741 42.8651C59.2306 42.3965 58.6449 41.5061 58.6449 40.4752V35.0864C58.6449 34.0554 59.2072 33.1651 60.0741 32.6965L65.0178 29.8381C65.5801 29.51 66.0253 28.7369 66.0253 28.1042Z" fill="#333333"/>
<path d="M56.9112 25.152C56.9112 24.5194 56.4661 23.7227 55.9038 23.4181L48.7811 19.3179C48.2187 18.9899 47.7736 19.2711 47.7736 19.9037V28.1276C47.7736 28.7602 48.2187 29.5568 48.7811 29.8614L55.9038 33.9616C56.4661 34.2896 56.9112 34.0085 56.9112 33.3759V25.152Z" fill="#808080"/>
<path d="M66.0253 28.1041C66.0253 28.7367 65.5801 29.5333 65.0178 29.8379L57.8951 33.9382C57.3328 34.2662 56.8876 33.985 56.8876 33.3524V25.1285C56.8876 24.4959 57.3328 23.6993 57.8951 23.3947L65.0178 19.2945C65.5801 18.9665 66.0253 19.2476 66.0253 19.8802V28.1041Z" fill="black"/>
<path d="M56.9112 52.7291C56.9112 52.0965 56.4661 51.2999 55.9038 50.9953L48.7811 46.8951C48.2187 46.567 47.7736 46.8482 47.7736 47.4808V55.7047C47.7736 56.3373 48.2187 57.1339 48.7811 57.4385L55.9038 61.5387C56.4661 61.8668 56.9112 61.5856 56.9112 60.953V52.7291Z" fill="#808080"/>
<path d="M66.0253 55.6813C66.0253 56.3139 65.5801 57.1105 65.0178 57.4151L57.8951 61.5153C57.3328 61.8433 56.8876 61.5622 56.8876 60.9296V52.7291C56.8876 52.0965 57.3328 51.2999 57.8951 50.9953L65.0178 46.8951C65.5801 46.567 66.0253 46.8482 66.0253 47.4808V55.6813Z" fill="black"/>
<path d="M33.0127 66.5292C33.0127 65.8965 32.5675 65.0999 32.0052 64.7953L24.9059 60.6951C24.3436 60.3671 23.8984 60.6483 23.8984 61.2809V69.5048C23.8984 70.1374 24.3436 70.934 24.9059 71.2386L32.0286 75.3388C32.5909 75.6668 33.0361 75.3857 33.0361 74.7531L33.0127 66.5292Z" fill="#808080"/>
<path d="M42.1268 69.4813C42.1268 70.1139 41.6817 70.9105 41.1193 71.2151L33.9967 75.3154C33.4343 75.6434 32.9892 75.3622 32.9892 74.7296V66.5057C32.9892 65.8731 33.4343 65.0765 33.9967 64.7719L41.1193 60.6717C41.6817 60.3437 42.1268 60.6248 42.1268 61.2574V69.4813Z" fill="black"/>
<path d="M42.127 14.304V6.10349C42.127 5.47088 41.6818 4.67426 41.1195 4.36968L34.0203 0.246014C33.458 -0.0820046 32.5676 -0.0820046 32.0053 0.246014L24.8826 4.34625C24.3203 4.67426 23.8751 5.44745 23.8751 6.08006V14.304C23.8751 14.9366 24.3203 15.7097 24.8826 16.0378L29.8263 18.8962C30.6698 19.3648 31.2555 20.2551 31.2555 21.2861V26.6749C31.2555 27.7059 30.6932 28.5962 29.8263 29.0648L24.8826 31.9232C24.3203 32.2513 23.8751 33.0244 23.8751 33.657V41.8809C23.8751 42.5135 24.3203 43.3102 24.8826 43.6148L32.0053 47.715C32.5676 48.043 33.458 48.043 34.0203 47.715L41.143 43.6148C41.7053 43.2867 42.1504 42.5135 42.1504 41.8809V33.657C42.1504 33.0244 41.7053 32.2278 41.143 31.9232L36.1993 29.0648C35.3558 28.5962 34.77 27.7059 34.77 26.6749V21.2861C34.77 20.2551 35.3323 19.3648 36.1993 18.8962L41.143 16.0378C41.6819 15.7332 42.127 14.9366 42.127 14.304Z" fill="#333333"/>
<path d="M33.0128 11.3753C33.0128 10.7427 32.5676 9.94613 32.0053 9.64154L24.8826 5.54131C24.3203 5.21329 23.8751 5.49445 23.8751 6.12705V14.3041C23.8751 14.9367 24.3203 15.7333 24.8826 16.0379L32.0053 20.1616C32.5676 20.4896 33.0128 20.2084 33.0128 19.5758V11.3753Z" fill="#808080"/>
<path d="M42.127 14.3041C42.127 14.9367 41.6818 15.7333 41.1195 16.0379L34.0202 20.1616C33.4579 20.4896 33.0128 20.2084 33.0128 19.5758V11.3753C33.0128 10.7427 33.4579 9.94613 34.0202 9.64154L41.1429 5.54131C41.7052 5.21329 42.1504 5.49445 42.1504 6.12705L42.127 14.3041Z" fill="black"/>
<path d="M33.0128 38.9523C33.0128 38.3196 32.5676 37.523 32.0053 37.2184L24.8826 33.1182C24.3203 32.7902 23.8751 33.0713 23.8751 33.704V41.9278C23.8751 42.5605 24.3203 43.3571 24.8826 43.6617L32.0053 47.7619C32.5676 48.0899 33.0128 47.8088 33.0128 47.1761V38.9523Z" fill="#808080"/>
<path d="M42.1268 41.881C42.1268 42.5136 41.6817 43.3102 41.1193 43.6148L33.9967 47.715C33.4343 48.043 32.9892 47.7619 32.9892 47.1293V38.9054C32.9892 38.2728 33.4343 37.4762 33.9967 37.1716L41.1193 33.0713C41.6817 32.7433 42.1268 33.0245 42.1268 33.6571V41.881Z" fill="black"/>
<path d="M113.893 26.9326C113.026 26.9326 112.346 27.2841 111.948 27.9167L105.13 38.179L98.3118 27.9167C97.89 27.2841 97.2574 26.9326 96.414 26.9326C95.0316 26.9326 94.1178 27.987 94.1178 29.2756V48.4647H98.7335V36.3749L103.279 43.2633C103.56 43.7084 104.169 44.3176 105.13 44.3176C106.091 44.3176 106.7 43.7318 106.981 43.2867L111.55 36.3749V48.4647H116.118V29.2522C116.118 27.9635 115.181 26.9326 113.893 26.9326Z" fill="#333333"/>
<path d="M128.56 27.1436H123.757V48.4413H128.56V27.1436Z" fill="#333333"/>
<path d="M160.354 29.5568V46.0515C160.354 47.3636 161.432 48.4413 162.744 48.4413H175.982V44.3177H165.134V39.6551H172.913C174.061 39.6551 174.998 38.7648 174.998 37.6167C174.998 36.4687 174.061 35.5315 172.913 35.5315H165.134V31.2672H175.982V27.1436H162.744C161.432 27.1436 160.354 28.2448 160.354 29.5568Z" fill="#333333"/>
<path d="M187.72 27.1436H182.917V48.4413H187.72V27.1436Z" fill="#333333"/>
<path d="M210.026 40.0534C202.833 31.7123 199.506 27.7761 199.506 27.7761C198.967 27.1435 198.428 26.9561 197.678 26.9561C196.366 26.9561 195.288 28.0338 195.288 29.3459V48.4647H200.091V35.508L210.611 47.8555C211.197 48.535 211.994 48.7224 212.744 48.6287C213.938 48.4647 214.829 47.4806 214.829 46.2623V27.1669H210.026V40.0534Z" fill="#333333"/>
<path d="M227.34 27.1436H224.74C223.428 27.1436 222.35 28.2213 222.35 29.5334V46.028C222.35 47.3401 223.428 48.4179 224.74 48.4179H227.34C236.009 48.4179 241 44.0131 241 37.7573C241 31.5718 236.009 27.1436 227.34 27.1436ZM228.207 44.2005H227.153V31.4078H228.207C232.401 31.4078 236.009 33.2588 236.009 37.8042C236.009 42.3496 232.401 44.2005 228.207 44.2005Z" fill="#333333"/>
<path d="M141.212 27.1436H138.611C137.299 27.1436 136.222 28.2213 136.222 29.5334V35.508H133.925V39.6317H136.222V46.028C136.222 47.3401 137.299 48.4179 138.611 48.4179H141.212C149.881 48.4179 154.872 44.0131 154.872 37.7573C154.872 31.5718 149.881 27.1436 141.212 27.1436ZM142.079 44.2005H141.025V39.6551H143.321C144.469 39.6551 145.383 38.7414 145.383 37.5933C145.383 36.4452 144.469 35.5315 143.321 35.5315H141.025V31.4078H142.079C146.273 31.4078 149.881 33.2588 149.881 37.8042C149.881 42.3496 146.25 44.2005 142.079 44.2005Z" fill="#333333"/>
</svg>
